<svg width="25" height="25" viewBox="0 0 25 25" fill="none" xmlns="http://www.w3.org/2000/svg">
<path d="M7.11375 0H0.795995C0.356301 0 0 0.352001 0 0.786376V18.9289C0 19.3632 0.356307 19.7152 0.795995 19.7152H13.1183C14.1115 21.5392 15.9559 22.7576 18.0416 22.9678C20.1271 23.1777 22.1824 22.352 23.5278 20.7635C24.8731 19.175 25.3329 17.0305 24.7556 15.0396C24.1782 13.0485 22.6388 11.4701 20.646 10.8264V0.786818C20.646 0.352438 20.2897 0.000442567 19.85 0.000442567H13.5323C13.0928 0.000442567 12.7363 0.352444 12.7363 0.786818V3.67029H7.90969V0.786818C7.90969 0.578172 7.82587 0.378171 7.6766 0.230704C7.52734 0.0832428 7.3249 0.000431587 7.11369 0.000431587L7.11375 0ZM6.31776 18.1425H1.5921V1.57308H6.31776V18.1425ZM14.3287 1.57308H19.0544V10.5273H18.6803H18.6801C17.0581 10.5264 15.4981 11.1443 14.3259 12.2522L14.3287 1.57308ZM18.6829 12.0871C19.9359 12.0877 21.1373 12.58 22.023 13.4557C22.9087 14.3314 23.4062 15.5187 23.406 16.7565C23.4057 17.9945 22.9078 19.1815 22.0217 20.0568C21.1357 20.9322 19.9342 21.4242 18.681 21.4244C17.428 21.4246 16.2263 20.9331 15.3398 20.0581C14.4535 19.183 13.9551 17.9963 13.9544 16.7582C13.9551 15.5197 14.4537 14.3318 15.34 13.456C16.2266 12.5801 17.429 12.0877 18.6829 12.0871L18.6829 12.0871ZM12.7366 5.24287V14.6459C12.3274 15.767 12.2527 16.9809 12.5217 18.1428H7.91009V5.24321L12.7366 5.24287Z" fill="black" fill-opacity="0.5"/>
<path d="M2.29492 14.7344H5.61701V16.3071H2.29492V14.7344Z" fill="black" fill-opacity="0.5"/>
<path d="M2.29492 3.40625H5.61701V4.979H2.29492V3.40625Z" fill="black" fill-opacity="0.5"/>
<path d="M8.66406 14.7344H11.9862V16.3071H8.66406V14.7344Z" fill="black" fill-opacity="0.5"/>
<path d="M8.66406 7.07812H11.9862V8.65088H8.66406V7.07812Z" fill="black" fill-opacity="0.5"/>
<path d="M15.0312 3.40625H18.3533V4.979H15.0312V3.40625Z" fill="black" fill-opacity="0.5"/>
<path d="M22.271 15.2637L21.1458 14.1523L17.853 17.4027L16.0275 15.5967L14.9023 16.7106L17.853 19.6256L22.271 15.2637Z" fill="black" fill-opacity="0.5"/>
</svg>
