<svg width="25" height="25" viewBox="0 0 25 25" fill="none" xmlns="http://www.w3.org/2000/svg">
<path d="M4.6875 22.49H14.0625C14.4768 22.4896 14.874 22.325 15.1669 22.0324C15.4598 21.7397 15.6246 21.3429 15.625 20.9291V18.5876H14.0625V20.9291H4.6875V2.19767H14.0625V4.53909H15.625V2.19767C15.6246 1.78381 15.4598 1.38701 15.1669 1.09437C14.874 0.801721 14.4768 0.637132 14.0625 0.636719H4.6875C4.27323 0.637132 3.87604 0.801721 3.5831 1.09437C3.29017 1.38701 3.12541 1.78381 3.125 2.19767V20.9291C3.12541 21.3429 3.29017 21.7397 3.5831 22.0324C3.87604 22.325 4.27323 22.4896 4.6875 22.49Z" fill="#D05757"/>
<path d="M16.0828 15.1449L18.8844 12.3461H7.8125V10.7852H18.8844L16.0828 7.9864L17.1875 6.88281L21.875 11.5657L17.1875 16.2485L16.0828 15.1449Z" fill="#D05757"/>
</svg>
