<svg width="25" height="25" viewBox="0 0 25 25" fill="none" xmlns="http://www.w3.org/2000/svg">
<path d="M7.50632 9.07422H9.58034C9.71231 9.07422 9.81909 9.2062 9.81909 9.31298V10.4002C9.81909 10.5322 9.71208 10.639 9.58034 10.639H7.50632C7.37435 10.639 7.26758 10.507 7.26758 10.4002V9.31298C7.26758 9.18099 7.37458 9.07422 7.50632 9.07422Z" fill="black" fill-opacity="0.5"/>
<path d="M11.9087 9.07422H13.9827C14.1147 9.07422 14.2217 9.18099 14.2217 9.31298V10.4002C14.2217 10.4634 14.1965 10.5242 14.1515 10.5691C14.1069 10.6138 14.0461 10.639 13.9827 10.639H11.9087C11.7769 10.639 11.6699 10.532 11.6699 10.4002V9.31298C11.6699 9.18099 11.7769 9.07422 11.9087 9.07422V9.07422Z" fill="black" fill-opacity="0.5"/>
<path d="M16.311 9.07422H18.385C18.517 9.07422 18.6238 9.18099 18.6238 9.31298V10.4002C18.6238 10.4634 18.5988 10.5242 18.5539 10.5691C18.5092 10.6138 18.4485 10.639 18.385 10.639H16.3108H16.311C16.179 10.639 16.0723 10.532 16.0723 10.4002V9.31298C16.0723 9.18099 16.179 9.07422 16.311 9.07422H16.311Z" fill="black" fill-opacity="0.5"/>
<path d="M3.10203 12.8945H5.17604C5.30802 12.8945 5.41479 13.0015 5.41479 13.1333V14.2205C5.41479 14.3525 5.30802 14.4595 5.17604 14.4595H3.10203C3.03856 14.4595 2.97784 14.4343 2.93316 14.3894C2.88826 14.3447 2.86328 14.284 2.86328 14.2208V13.1333C2.86328 13.07 2.88826 13.0093 2.93316 12.9644C2.97784 12.9197 3.03856 12.8945 3.10203 12.8945V12.8945Z" fill="black" fill-opacity="0.5"/>
<path d="M7.50655 12.8945H9.58057C9.71231 12.8945 9.81931 13.0015 9.81931 13.1333V14.2205C9.81931 14.3525 9.71231 14.4595 9.58057 14.4595H7.50655C7.37458 14.4595 7.26758 14.3525 7.26758 14.2208V13.1333C7.26758 13.07 7.29278 13.0093 7.33769 12.9644C7.38237 12.9197 7.44309 12.8945 7.50655 12.8945V12.8945Z" fill="black" fill-opacity="0.5"/>
<path d="M13.3118 12.8945H11.9089C11.8454 12.8941 11.7843 12.9191 11.7394 12.964C11.6944 13.0089 11.6695 13.0698 11.6699 13.1333V14.2196C11.6695 14.2831 11.6944 14.3441 11.7394 14.389C11.7843 14.4339 11.8454 14.4589 11.9089 14.4584H12.0173C12.3763 13.8812 12.8117 13.3551 13.3118 12.8946L13.3118 12.8945Z" fill="black" fill-opacity="0.5"/>
<path d="M3.10203 16.7148H5.17604C5.30802 16.7148 5.41479 16.8468 5.41479 16.9536V18.0408C5.41479 18.1728 5.30779 18.2796 5.17604 18.2796H3.10203C2.97005 18.2796 2.86328 18.1476 2.86328 18.0408V16.9536C2.86328 16.8216 2.97028 16.7148 3.10203 16.7148Z" fill="black" fill-opacity="0.5"/>
<path d="M7.50632 16.7148H9.58034C9.71231 16.7148 9.81909 16.8468 9.81909 16.9536V18.0408C9.81909 18.1728 9.71208 18.2796 9.58034 18.2796H7.50632C7.37435 18.2796 7.26758 18.1476 7.26758 18.0408V16.9536C7.26758 16.8216 7.37458 16.7148 7.50632 16.7148Z" fill="black" fill-opacity="0.5"/>
<path d="M2.28597 20.2912C1.99613 20.2912 1.7182 20.1764 1.51289 19.9718C1.30782 19.767 1.19211 19.4892 1.19142 19.1994V7.06009H20.2956V11.0825C20.7049 11.1797 21.1044 11.3126 21.4903 11.4798V4.37691C21.4903 3.77038 21.2492 3.18885 20.8206 2.76017C20.3919 2.33146 19.8103 2.09065 19.2041 2.09065H17.2874L17.2872 0.571694C17.2865 0.255949 17.0303 6.26537e-06 16.7144 6.26537e-06C16.3984 6.26537e-06 16.142 0.255949 16.1413 0.571694V2.09041L5.34749 2.09064V0.571689C5.3468 0.255944 5.09041 0 4.77445 0C4.45849 0 4.20232 0.255944 4.20164 0.571689V2.09041L2.28617 2.09064C1.67967 2.09018 1.09792 2.33077 0.669029 2.75969C0.240337 3.18863 -0.000468562 3.77037 6.84517e-07 4.3769V19.1998V19.1996C-0.000457594 19.8061 0.240354 20.3879 0.669029 20.8168C1.09795 21.2457 1.67967 21.4863 2.28617 21.4858H11.4787C11.3105 21.1004 11.1777 20.7006 11.0814 20.2914L2.28597 20.2912ZM16.1411 3.29618V3.85894C16.1418 4.17491 16.3981 4.43063 16.7141 4.43063C17.0298 4.43063 17.2862 4.17491 17.2869 3.85894V3.29595C17.6324 3.46918 17.8808 3.78928 17.9628 4.16691C18.0448 4.54454 17.9516 4.93885 17.7092 5.23971C17.4665 5.54056 17.1011 5.71562 16.7145 5.71585C16.3282 5.71585 15.9626 5.54102 15.7199 5.2404C15.4773 4.93955 15.3838 4.54518 15.4656 4.1676C15.5474 3.78999 15.7958 3.46968 16.1411 3.29623V3.29618ZM4.20109 3.29618V3.85894C4.20177 4.17491 4.45793 4.43063 4.7739 4.43063C5.08986 4.43063 5.34625 4.17491 5.34693 3.85894V3.29573C5.69245 3.46895 5.94083 3.78905 6.02283 4.16668C6.10485 4.54429 6.01183 4.93862 5.76942 5.23972C5.527 5.54057 5.16133 5.7154 4.77502 5.71563C4.38872 5.71586 4.02305 5.54103 3.78016 5.2404C3.53752 4.93978 3.44403 4.54542 3.52583 4.16784C3.6074 3.79023 3.85577 3.46969 4.20108 3.29624L4.20109 3.29618Z" fill="black" fill-opacity="0.5"/>
<path d="M18.4873 11.9727C16.7599 11.9727 15.1034 12.6589 13.8821 13.8804C12.6606 15.1019 11.9746 16.7588 11.9746 18.486C11.9746 20.2134 12.6608 21.87 13.8823 23.0916C15.1037 24.3129 16.7603 24.9992 18.4877 24.9992C20.2151 24.9992 21.8716 24.3129 23.0929 23.0914C24.3143 21.8699 25.0006 20.2133 25.0006 18.4858C24.9985 16.759 24.3116 15.1036 23.0906 13.8825C21.8696 12.6615 20.2139 11.9745 18.4873 11.9727V11.9727ZM21.2785 22.3282L18.4873 20.5411L15.6959 22.3282L16.5326 19.1212L13.9706 17.0187L17.2791 16.8237L18.4871 13.7373L19.695 16.8237L23.0036 17.0187L20.4415 19.1212L21.2785 22.3282Z" fill="black" fill-opacity="0.5"/>
</svg>
