<svg width="25" height="25" viewBox="0 0 25 25" fill="none" xmlns="http://www.w3.org/2000/svg">
<path d="M19.4007 17.4117C20.4253 17.433 21.415 17.0257 22.1465 16.2822C22.8778 15.5384 23.289 14.5212 23.2872 13.4598C23.3027 12.3821 22.9001 11.3431 22.1695 10.575C21.4389 9.80721 20.4416 9.375 19.4007 9.375C18.3597 9.375 17.3622 9.80722 16.6316 10.575C15.901 11.3431 15.4984 12.3821 15.5141 13.4598C15.5123 14.5213 15.9235 15.5384 16.6548 16.2822C17.3863 17.0257 18.3758 17.4329 19.4007 17.4117V17.4117Z" fill="black" fill-opacity="0.5"/>
<path d="M24.8779 3.70326L24.0156 2.81031C23.8474 2.63615 23.5745 2.63615 23.4061 2.81031L22.4174 3.83406L21.4288 2.81031C21.2606 2.63615 20.9877 2.63615 20.8193 2.81031L19.9569 3.70326C19.7935 3.87836 19.796 4.15692 19.9622 4.32896C20.1285 4.50123 20.3975 4.50358 20.5666 4.33438L21.124 3.75723L22.1127 4.78098C22.2811 4.95514 22.554 4.95514 22.7222 4.78098L23.7108 3.75723L24.2682 4.33438C24.4375 4.50359 24.7063 4.50123 24.8727 4.32896C25.039 4.15692 25.0413 3.87836 24.8779 3.70326H24.8779Z" fill="black" fill-opacity="0.5"/>
<path d="M17.1193 1.65493L17.6769 1.07754L18.6655 2.1013H18.6653C18.8337 2.27545 19.1066 2.27545 19.275 2.1013L20.2637 1.07754L20.821 1.65469V1.65493C20.9901 1.8239 21.2592 1.82154 21.4253 1.64927C21.5917 1.47723 21.5939 1.19867 21.4305 1.02358L20.5682 0.130618H20.5684C20.4 -0.0435394 20.1271 -0.0435394 19.9587 0.130618L18.9702 1.15437L17.9816 0.130618C17.8132 -0.0435394 17.5403 -0.0435394 17.3719 0.130618L16.5095 1.02358H16.5097C16.3463 1.19868 16.3486 1.47724 16.515 1.64927C16.6811 1.82154 16.9501 1.8239 17.1192 1.65493H17.1193Z" fill="black" fill-opacity="0.5"/>
<path d="M17.8037 5.48609L16.9414 6.37905C16.778 6.55415 16.7802 6.8327 16.9466 7.00474C17.113 7.17701 17.3818 7.17937 17.5511 7.01016L18.1085 6.43301L19.0971 7.45677C19.2653 7.63092 19.5382 7.63092 19.7066 7.45677L20.6953 6.43301L21.2526 7.01016C21.4217 7.17937 21.6908 7.17701 21.8571 7.00474C22.0233 6.8327 22.0258 6.55414 21.8624 6.37905L21 5.48609C20.8316 5.31193 20.5587 5.31193 20.3905 5.48609L19.4019 6.50984L18.4132 5.48609C18.2448 5.31193 17.9719 5.31193 17.8037 5.48609H17.8037Z" fill="black" fill-opacity="0.5"/>
<path d="M6.17711 5.66016C5.09289 5.712 4.07009 6.1963 3.32315 7.01193C2.08029 8.29891 1.76328 9.97901 2.20911 10.921L6.9516 6.01014C6.94545 5.99765 6.93567 5.98822 6.93043 5.97526V5.97549C6.90904 5.92082 6.89812 5.86237 6.89834 5.80369V5.78978C6.66665 5.70495 6.42291 5.66111 6.17711 5.66017L6.17711 5.66016Z" fill="black" fill-opacity="0.5"/>
<path d="M4.01959 18.2839C4.38555 18.4625 4.7611 18.6633 5.14045 18.8919C6.93087 15.2907 7.95776 11.3348 8.15236 7.28965L7.54444 6.66016L6.84686 7.3825C6.57511 11.1683 5.61582 14.8666 4.01953 18.2843L4.01959 18.2839Z" fill="black" fill-opacity="0.5"/>
<path d="M3.88029 2.68045C4.97155 2.65476 6.04423 2.97409 6.95547 3.59603C6.69328 2.64208 6.12091 1.81108 5.33546 1.24336C4.25603 0.362229 2.89116 -0.0563477 1.52244 0.0742086C1.21315 0.114037 0.915926 0.22433 0.652344 0.397075L3.60511 2.69038C3.69706 2.6859 3.78946 2.68048 3.88027 2.68048L3.88029 2.68045Z" fill="black" fill-opacity="0.5"/>
<path d="M11.4841 2.6867L14.4369 0.393397H14.4371C14.1736 0.220651 13.8763 0.11036 13.567 0.0705294C12.1983 -0.0607387 10.833 0.357808 9.75401 1.23968C8.96542 1.80835 8.39077 2.64141 8.12695 3.59826C9.03935 2.97233 10.1149 2.65064 11.2092 2.67683C11.3004 2.67683 11.3924 2.68225 11.4841 2.68673L11.4841 2.6867Z" fill="black" fill-opacity="0.5"/>
<path d="M10.6133 25.0005H24.1431V20.0898H6.83203C8.42832 21.4162 9.71989 23.0937 10.613 25.0005H10.6133ZM18.5388 23.6612H15.0899C14.8517 23.6612 14.6587 23.4613 14.6587 23.2148C14.6587 22.9683 14.8517 22.7685 15.0899 22.7685H18.539H18.5388C18.7769 22.7685 18.9701 22.9683 18.9701 23.2148C18.9701 23.4613 18.7769 23.6612 18.5388 23.6612H18.5388ZM22.85 23.2148C22.85 23.3334 22.8048 23.4467 22.724 23.5306C22.6429 23.6143 22.5335 23.6612 22.419 23.6612H20.6945C20.4565 23.6612 20.2635 23.4614 20.2635 23.2148C20.2635 22.9683 20.4565 22.7685 20.6945 22.7685H22.419C22.5335 22.7685 22.6429 22.8154 22.724 22.8993C22.8048 22.983 22.85 23.0965 22.85 23.2149V23.2148ZM17.6767 20.9828H21.9879C22.226 20.9828 22.419 21.1827 22.419 21.4292C22.419 21.6757 22.226 21.8755 21.9879 21.8755H17.6767C17.4384 21.8755 17.2454 21.6757 17.2454 21.4292C17.2454 21.1827 17.4384 20.9828 17.6767 20.9828ZM12.0719 20.9828H15.9521C16.1901 20.9828 16.3833 21.1827 16.3833 21.4292C16.3833 21.6757 16.1901 21.8755 15.9521 21.8755H12.0719C11.8338 21.8755 11.6408 21.6757 11.6408 21.4292C11.6408 21.1827 11.8338 20.9828 12.0719 20.9828ZM11.2095 22.7685H12.9342C13.1723 22.7685 13.3653 22.9684 13.3653 23.2149C13.3653 23.4614 13.1723 23.6612 12.9342 23.6612H11.2097C10.9717 23.6612 10.7785 23.4614 10.7785 23.2149C10.7785 22.9684 10.9717 22.7685 11.2097 22.7685H11.2095Z" fill="black" fill-opacity="0.5"/>
<path d="M7.00357 4.87732C6.44871 4.11444 5.24315 3.57031 3.88038 3.57031C2.14775 3.57031 0.49728 4.38852 0.09375 5.35599H4.05721C4.95026 4.83045 5.99789 4.66031 7.00357 4.87735V4.87732Z" fill="black" fill-opacity="0.5"/>
<path d="M11.0328 5.35599H14.9962C14.5927 4.38858 12.9422 3.57031 11.2096 3.57031C9.84676 3.57031 8.64147 4.11447 8.08617 4.87756L8.08594 4.87733C9.09191 4.66028 10.1395 4.83043 11.0328 5.35597L11.0328 5.35599Z" fill="black" fill-opacity="0.5"/>
<path d="M8.13676 6.0085L12.8793 10.9193C13.3251 9.97737 13.0085 8.29752 11.7652 7.0103H11.765C11.4664 6.69992 11.1291 6.43221 10.7622 6.21375L10.7554 6.21021C9.99436 5.70682 9.06576 5.55315 8.19089 5.78577V5.80321C8.19066 5.86166 8.17951 5.91963 8.15788 5.9736C8.15265 5.98656 8.14264 5.99598 8.13672 6.00847L8.13676 6.0085Z" fill="black" fill-opacity="0.5"/>
<path d="M0.000116462 17.9105V24.9981H9.64963C8.68328 23.122 7.30816 21.5044 5.63333 20.2742C3.95827 19.0437 2.02965 18.2344 0 17.9102L0.000116462 17.9105ZM1.72482 24.1058H1.29354C1.05548 24.1058 0.862485 23.906 0.862485 23.6593C0.862485 23.4128 1.05548 23.2129 1.29354 23.2129H1.72482C1.96287 23.2129 2.15587 23.4128 2.15587 23.6593C2.15587 23.906 1.96287 24.1058 1.72482 24.1058ZM2.58717 22.3202L2.15589 22.3199C1.91783 22.3199 1.72483 22.1201 1.72483 21.8736C1.72483 21.6271 1.91783 21.4272 2.15589 21.4272H2.58694C2.825 21.4272 3.01822 21.6271 3.01822 21.8736C3.01822 22.1201 2.825 22.3199 2.58694 22.3199L2.58717 22.3202ZM4.31164 23.2131L3.88036 23.2129C3.6423 23.2129 3.4493 23.013 3.4493 22.7665C3.4493 22.52 3.6423 22.32 3.88036 22.32H4.31164C4.54969 22.32 4.74269 22.52 4.74269 22.7665C4.74269 23.013 4.54969 23.2129 4.31164 23.2129V23.2131ZM6.8984 24.1061L6.46712 24.1059C6.22906 24.1059 6.03606 23.906 6.03606 23.6593C6.03606 23.4128 6.22906 23.2129 6.46712 23.2129H6.89817C7.13645 23.2129 7.32945 23.4128 7.32945 23.6593C7.32945 23.906 7.13645 24.1059 6.89817 24.1059L6.8984 24.1061Z" fill="black" fill-opacity="0.5"/>
</svg>
