<svg width="25" height="25" viewBox="0 0 25 25" fill="none" xmlns="http://www.w3.org/2000/svg">
<path d="M21.9091 21.8421V3.31579H3.09091V12.5789H1V3.31579C1 2.67895 1.20491 2.13358 1.61473 1.67968C2.02385 1.22656 2.51591 1 3.09091 1H21.9091C22.4841 1 22.9765 1.22656 23.3863 1.67968C23.7954 2.13358 24 2.67895 24 3.31579V19.5263C24 20.1632 23.7954 20.7085 23.3863 21.1624C22.9765 21.6155 22.4841 21.8421 21.9091 21.8421ZM9.36364 13.7368C8.21364 13.7368 7.22917 13.2833 6.41023 12.3763C5.59129 11.4693 5.18182 10.3789 5.18182 9.10526C5.18182 7.83158 5.59129 6.74123 6.41023 5.83421C7.22917 4.92719 8.21364 4.47368 9.36364 4.47368C10.5136 4.47368 11.4981 4.92719 12.317 5.83421C13.136 6.74123 13.5455 7.83158 13.5455 9.10526C13.5455 10.3789 13.136 11.4693 12.317 12.3763C11.4981 13.2833 10.5136 13.7368 9.36364 13.7368ZM9.36364 11.4211C9.93864 11.4211 10.431 11.1941 10.8409 10.7402C11.25 10.2871 11.4545 9.74211 11.4545 9.10526C11.4545 8.46842 11.25 7.92305 10.8409 7.46916C10.431 7.01603 9.93864 6.78947 9.36364 6.78947C8.78864 6.78947 8.29658 7.01603 7.88745 7.46916C7.47764 7.92305 7.27273 8.46842 7.27273 9.10526C7.27273 9.74211 7.47764 10.2871 7.88745 10.7402C8.29658 11.1941 8.78864 11.4211 9.36364 11.4211ZM1 23V19.7579C1 19.1018 1.15264 18.4989 1.45791 17.9493C1.76248 17.3989 2.16742 16.9789 2.67273 16.6895C3.75303 16.0912 4.85076 15.6424 5.96591 15.3428C7.08106 15.0441 8.21364 14.8947 9.36364 14.8947C10.5136 14.8947 11.6462 15.0441 12.7614 15.3428C13.8765 15.6424 14.9742 16.0912 16.0545 16.6895C16.5598 16.9789 16.9648 17.3989 17.2694 17.9493C17.5746 18.4989 17.7273 19.1018 17.7273 19.7579V23H1ZM3.09091 20.6842H15.6364V19.7579C15.6364 19.5456 15.5886 19.3526 15.4931 19.1789C15.397 19.0053 15.2705 18.8702 15.1136 18.7737C14.1727 18.2526 13.2231 17.8616 12.2648 17.6007C11.3064 17.3406 10.3394 17.2105 9.36364 17.2105C8.38788 17.2105 7.42083 17.3406 6.4625 17.6007C5.50417 17.8616 4.55455 18.2526 3.61364 18.7737C3.45682 18.8702 3.33067 19.0053 3.23518 19.1789C3.139 19.3526 3.09091 19.5456 3.09091 19.7579V20.6842Z" fill="black" fill-opacity="0.5"/>
</svg>
