<svg width="25" height="25" viewBox="0 0 25 25" fill="none" xmlns="http://www.w3.org/2000/svg">
<g clip-path="url(#clip0_2204_54)">
<path d="M22.5755 19.3281C21.9059 18.7311 21.3196 18.0468 20.8325 17.2934C20.3007 16.2535 19.9819 15.1179 19.895 13.9531V10.5226C19.8996 8.69313 19.2359 6.92498 18.0288 5.55033C16.8217 4.17567 15.1541 3.28914 13.3394 3.05729V2.16146C13.3394 1.91558 13.2417 1.67977 13.0679 1.50591C12.894 1.33205 12.6582 1.23438 12.4123 1.23438C12.1664 1.23438 11.9306 1.33205 11.7568 1.50591C11.5829 1.67977 11.4852 1.91558 11.4852 2.16146V3.07118C9.68681 3.31974 8.03939 4.21164 6.84811 5.58167C5.65683 6.95171 5.00242 8.70704 5.00608 10.5226V13.9531C4.9191 15.1179 4.60037 16.2535 4.06858 17.2934C3.59002 18.045 3.01316 18.7293 2.3533 19.3281C2.27922 19.3932 2.21986 19.4733 2.17914 19.5631C2.13843 19.6529 2.11731 19.7504 2.11719 19.849V20.7934C2.11719 20.9776 2.19035 21.1542 2.32059 21.2844C2.45082 21.4147 2.62745 21.4878 2.81163 21.4878H22.1172C22.3014 21.4878 22.478 21.4147 22.6082 21.2844C22.7385 21.1542 22.8116 20.9776 22.8116 20.7934V19.849C22.8115 19.7504 22.7904 19.6529 22.7497 19.5631C22.709 19.4733 22.6496 19.3932 22.5755 19.3281ZM3.56163 20.099C4.20775 19.4748 4.77663 18.7753 5.25608 18.0156C5.92595 16.7597 6.31679 15.374 6.40191 13.9531V10.5226C6.37437 9.70871 6.51088 8.89762 6.80333 8.13762C7.09577 7.37761 7.53817 6.68422 8.10416 6.09875C8.67016 5.51328 9.34819 5.04769 10.0979 4.7297C10.8475 4.41172 11.6536 4.24785 12.4679 4.24785C13.2822 4.24785 14.0882 4.41172 14.8379 4.7297C15.5876 5.04769 16.2656 5.51328 16.8316 6.09875C17.3976 6.68422 17.84 7.37761 18.1324 8.13762C18.4249 8.89762 18.5614 9.70871 18.5339 10.5226V13.9531C18.619 15.374 19.0098 16.7597 19.6797 18.0156C20.1591 18.7753 20.728 19.4748 21.3741 20.099H3.56163Z" fill="black" fill-opacity="0.5"/>
<path d="M12.4998 23.806C12.9372 23.7959 13.357 23.6315 13.6849 23.3417C14.0128 23.0519 14.2277 22.6556 14.2914 22.2227H10.6387C10.7043 22.6673 10.9292 23.073 11.2715 23.3643C11.6139 23.6555 12.0504 23.8125 12.4998 23.806V23.806Z" fill="black" fill-opacity="0.5"/>
</g>
<defs>
<clipPath id="clip0_2204_54">
<rect width="25" height="25" fill="white"/>
</clipPath>
</defs>
</svg>
