<svg width="25" height="25" viewBox="0 0 25 25" fill="none" xmlns="http://www.w3.org/2000/svg">
<path d="M22.1733 4.41004L19.0771 1.63681L17.2507 0H1V25H24V6.04729L22.1733 4.41004ZM18.0802 2.52449L21.1793 5.30087H18.0802V2.52449ZM22.595 23.7408H2.40577V1.25961H16.6675L16.6749 1.2659V6.5604H22.5844L22.5949 6.56983L22.595 23.7408Z" fill="black" fill-opacity="0.5"/>
<path d="M18.8085 11.4757C18.7865 11.3106 18.7571 11.1484 18.7186 10.9885C18.6819 10.84 18.6401 10.6929 18.591 10.5492C18.5407 10.4075 18.4846 10.2685 18.4227 10.1325C18.3637 10.0031 18.299 9.87661 18.2292 9.75266C18.1584 9.62814 18.0838 9.50618 18.0032 9.38766C17.9254 9.27399 17.8419 9.16375 17.7548 9.05579C17.6669 8.94611 17.575 8.84016 17.4775 8.73762C17.3825 8.63823 17.2846 8.54113 17.1823 8.44802C17.0771 8.35263 16.9684 8.26124 16.8549 8.17356C16.7446 8.08788 16.6317 8.00448 16.5138 7.92594C16.3913 7.84511 16.2654 7.76886 16.1369 7.6966C16.0094 7.62463 15.879 7.55752 15.7451 7.49411C15.6045 7.42842 15.4624 7.36645 15.3154 7.31104C15.1684 7.25535 15.0183 7.20623 14.8659 7.16081C14.7033 7.11369 14.5379 7.07228 14.3698 7.03715C14.1983 7.00202 14.0249 6.97318 13.8483 6.95147C13.6561 6.92805 13.4619 6.9132 13.2643 6.90663C13.1964 6.90463 13.1281 6.90234 13.0605 6.90234V12.0894H18.8509C18.8509 12.0575 18.848 12.0258 18.848 11.994C18.8445 11.8187 18.8314 11.6459 18.8085 11.4757L18.8085 11.4757ZM13.4976 7.81911L14.0013 7.36785C14.1757 7.39584 14.3472 7.43183 14.5152 7.47467L13.4976 8.38691L13.4979 7.81914L13.4976 7.81911ZM13.4976 8.9398L14.9794 7.61263C15.1292 7.66461 15.2775 7.7223 15.42 7.78571L13.4976 9.50763L13.4976 8.9398ZM13.4976 10.0614L15.8185 7.98193C15.9495 8.05276 16.0764 8.12788 16.1995 8.20813L13.498 10.6284L13.4976 10.0614ZM13.556 11.6976H13.4976V11.1818L16.5454 8.45172C16.6579 8.53882 16.7679 8.6305 16.8721 8.72589L13.556 11.6976ZM14.8073 11.6976H14.1732L17.167 9.01577C17.2636 9.11945 17.3551 9.22626 17.4422 9.33679L14.8073 11.6976ZM16.0579 11.6976H15.4244L17.6838 9.6738C17.7622 9.79432 17.8355 9.9177 17.9018 10.0454L16.0579 11.6976ZM17.3098 11.6976H16.6757L18.0854 10.4349C18.1431 10.5754 18.1941 10.7197 18.2372 10.8662L17.3098 11.6976ZM17.9267 11.6976L18.344 11.3238C18.3666 11.4471 18.3845 11.5714 18.396 11.6976H17.9267Z" fill="black" fill-opacity="0.5"/>
<path d="M18.2391 14.7257C18.6293 14.0271 18.8505 13.2397 18.8505 12.4062L13.0605 12.4065L18.2391 14.7257ZM18.0099 14.1513L15.0571 12.8284H18.3586C18.3143 13.2836 18.1986 13.7266 18.0098 14.1513H18.0099Z" fill="black" fill-opacity="0.5"/>
<path d="M12.3982 6.90234C8.94847 6.90234 6.15234 9.40768 6.15234 12.4979C6.15234 15.588 8.94855 18.0934 12.3985 18.0934C13.2405 18.0934 13.9039 17.9897 14.6368 17.7192L12.3982 12.4976V6.90234Z" fill="black" fill-opacity="0.5"/>
<path d="M17.6049 14.7788L17.1924 14.5943L16.7627 14.4021L16.3501 14.2173L15.9198 14.0251L15.5079 13.8398L15.0769 13.6478L14.6656 13.463L14.2352 13.2703L13.8227 13.0858L13.3923 12.8927L13.0566 12.7422L13.3923 13.473L13.8227 14.4098L14.2352 15.3071L14.6656 16.2433L15.0769 17.1413L15.2251 17.4643C15.3211 17.4294 15.4151 17.3909 15.5079 17.3509C15.6485 17.2915 15.7865 17.2264 15.9198 17.157C16.0674 17.0802 16.2108 16.997 16.3501 16.9094C16.492 16.8191 16.6294 16.7226 16.7627 16.6215C16.9131 16.5055 17.0563 16.3833 17.1924 16.2548C17.3394 16.1168 17.4774 15.9726 17.6049 15.8209C17.7627 15.6347 17.9068 15.4385 18.0353 15.2329C18.0771 15.1649 18.1182 15.0964 18.1577 15.0272L18.0353 14.9724L17.6049 14.7788ZM14.2365 14.2944L13.8926 13.547L14.2365 13.7009V14.2944ZM15.0776 16.128L14.6663 15.2304L14.6666 13.8938L15.0779 14.078L15.0776 16.128ZM15.9205 16.7021C15.7872 16.7795 15.6498 16.8529 15.5086 16.9188V14.2707L15.9205 14.4555V16.7021ZM16.763 16.0954C16.632 16.212 16.4946 16.3233 16.3505 16.427V14.6483L16.763 14.8331V16.0954ZM17.1928 15.6667V15.0253L17.5642 15.1918C17.4519 15.3574 17.3263 15.5151 17.1928 15.6667V15.6667Z" fill="black" fill-opacity="0.5"/>
</svg>
