<svg width="25" height="25" viewBox="0 0 25 25" fill="none" xmlns="http://www.w3.org/2000/svg">
<path d="M20.5344 15.9077C20.4055 15.842 20.254 15.7795 20.1258 15.7139H20.2344C20.2344 15.7139 19.3297 15.3233 19.2657 12.4514C19.179 9.59595 20.1251 9.10064 20.1251 9.10064C20.8537 8.73526 21.4486 8.1494 21.8251 7.42642C22.0716 6.96224 22.2243 6.45404 22.2745 5.93084C22.3246 5.40764 22.2712 4.87968 22.1172 4.37714C21.9633 3.87459 21.7118 3.4073 21.3772 3.00194C21.0427 2.59659 20.6315 2.26112 20.1672 2.0147C19.2025 1.51239 18.0798 1.40654 17.0382 1.71969C15.9967 2.03284 15.1185 2.74025 14.5907 3.69126C14.1819 4.46049 14.0383 5.34306 14.1821 6.2022L14.1407 6.13735C14.1407 6.13735 14.3751 7.16782 11.9227 8.6936C9.48912 10.217 8.36881 9.44517 8.36881 9.44517L8.43287 9.55298C8.36515 9.50421 8.29385 9.46059 8.21959 9.42251C7.58135 9.08734 6.86436 8.931 6.14453 8.97002C5.4247 9.00905 4.72881 9.24199 4.13055 9.64419C3.53229 10.0464 3.05392 10.6029 2.74608 11.2547C2.43825 11.9066 2.31241 12.6296 2.38189 13.3471C2.45137 14.0646 2.71358 14.75 3.14077 15.3307C3.56795 15.9114 4.1442 16.3658 4.80851 16.6457C5.47283 16.9257 6.20048 17.0208 6.91443 16.921C7.62837 16.8212 8.30205 16.5302 8.86412 16.0788L8.84459 16.1217C8.84459 16.1217 9.72662 15.3928 12.2876 16.7678C14.3126 17.8413 14.6149 18.9147 14.6571 19.2991C14.628 20.0475 14.8105 20.789 15.1836 21.4384C15.5567 22.0879 16.1053 22.619 16.7665 22.9709C17.2304 23.2206 17.7391 23.3761 18.2633 23.4288C18.7875 23.4814 19.3169 23.43 19.8212 23.2776C20.3255 23.1252 20.7948 22.8748 21.2021 22.5406C21.6094 22.2065 21.9468 21.7952 22.1948 21.3305C22.4429 20.8657 22.5967 20.3565 22.6476 19.8321C22.6984 19.3077 22.6453 18.7785 22.4912 18.2747C22.3371 17.7709 22.085 17.3025 21.7495 16.8963C21.414 16.4901 21.0016 16.1541 20.536 15.9077H20.5344ZM16.011 16.4428C15.6891 16.5506 14.761 16.6772 12.8258 15.6483C10.7165 14.5124 10.3922 13.567 10.3501 13.2881C10.3774 12.9441 10.3624 12.598 10.3055 12.2577L10.3282 12.278C10.3282 12.278 10.1563 11.3553 12.5657 9.87485C14.7196 8.54282 15.711 8.80142 15.8821 8.8647C15.9972 8.94849 16.1202 9.02096 16.2493 9.0811C16.4866 9.21246 16.7397 9.31301 17.0024 9.38032C17.3047 9.65923 17.843 10.4538 17.9071 12.5834C17.9712 14.7131 17.3469 15.5241 17.0024 15.803C16.6416 15.9655 16.3074 16.1815 16.011 16.4436V16.4428Z" fill="black" fill-opacity="0.5"/>
<path d="M15.729 3.30291C15.1722 3.85768 14.8539 4.60788 14.842 5.3938C14.83 6.17971 15.1253 6.93925 15.6649 7.51072C15.1048 6.97556 15.1274 5.85681 15.6876 4.80603C15.7491 4.71269 15.8388 4.64138 15.9436 4.60246C16.0484 4.56355 16.1629 4.55905 16.2704 4.58963C16.2899 4.58963 16.3126 4.61228 16.3345 4.61228C16.405 4.6291 16.4776 4.63594 16.5501 4.6326C16.6604 4.62845 16.7687 4.60221 16.8687 4.55543C16.9687 4.50865 17.0583 4.44228 17.1322 4.36025C17.206 4.27822 17.2627 4.1822 17.2988 4.07788C17.3349 3.97355 17.3497 3.86305 17.3423 3.75291C17.3422 3.65237 17.3213 3.55294 17.281 3.46085C17.2406 3.36876 17.1817 3.286 17.1079 3.21775C18.186 2.50916 19.4126 2.42322 19.9282 2.89588H19.9509C19.6475 2.64412 19.2973 2.45487 18.9205 2.33902C18.5436 2.22316 18.1476 2.18299 17.7552 2.22083C17.3628 2.25866 16.9818 2.37374 16.634 2.55946C16.2863 2.74517 15.9787 2.99783 15.729 3.30291ZM4.01805 10.8162C3.46018 11.3709 3.14122 12.1216 3.12926 12.9082C3.11729 13.6948 3.41325 14.455 3.95398 15.0263C3.39383 14.4881 3.41336 13.3724 3.97351 12.3193C4.03504 12.2261 4.12486 12.155 4.22977 12.1166C4.33468 12.0782 4.44915 12.0745 4.55633 12.106C4.57586 12.106 4.59851 12.1287 4.62039 12.1287C4.69097 12.1454 4.76354 12.1523 4.83601 12.149C4.94666 12.1453 5.05543 12.1193 5.15584 12.0727C5.25624 12.026 5.34623 11.9596 5.42044 11.8775C5.49465 11.7953 5.55157 11.6991 5.5878 11.5944C5.62403 11.4898 5.63883 11.379 5.63133 11.2685C5.63115 11.1676 5.61026 11.0677 5.56995 10.9751C5.52963 10.8825 5.47075 10.7992 5.39695 10.7303C6.47273 10.0217 7.6993 9.93572 8.21726 10.4084H8.2368C7.62198 9.90616 6.83363 9.66723 6.04345 9.74361C5.25327 9.82 4.52528 10.2055 4.01805 10.8162ZM16.418 17.1935C15.8613 17.7488 15.5431 18.4994 15.5311 19.2856C15.5191 20.0718 15.8144 20.8317 16.354 21.4037C15.7938 20.8654 15.8165 19.7498 16.3766 18.6967C16.4382 18.6034 16.528 18.5324 16.6329 18.494C16.7378 18.4556 16.8523 18.4519 16.9595 18.4834C16.979 18.4834 17.0016 18.5037 17.0235 18.5037C17.0938 18.5225 17.1665 18.5302 17.2391 18.5263C17.3497 18.5225 17.4583 18.4965 17.5586 18.4499C17.6589 18.4032 17.7488 18.3369 17.823 18.2549C17.8972 18.1728 17.9541 18.0767 17.9905 17.9722C18.0268 17.8677 18.0417 17.757 18.0345 17.6467C18.0347 17.5456 18.014 17.4456 17.9737 17.353C17.9333 17.2603 17.8742 17.177 17.8001 17.1084C18.8782 16.3998 20.1048 16.3138 20.6204 16.7865H20.643C20.3395 16.5346 19.989 16.3452 19.6119 16.2292C19.2348 16.1133 18.8385 16.073 18.4458 16.1109C18.0532 16.1487 17.6718 16.2638 17.3238 16.4496C16.9758 16.6355 16.668 16.8883 16.418 17.1935Z" fill="white"/>
</svg>
